<svg id="staff" enable-background="new 0 0 300 300" height="512" viewBox="0 0 300 300" width="512" xmlns="http://www.w3.org/2000/svg"><g><circle cx="164.557" cy="166" fill="#ffe4b8" r="84"/><g fill="#4c241d"><circle cx="70.557" cy="112" r="4.529"/><circle cx="202.557" cy="212" r="4.529"/><path d="m96.557 234c-6.617 0-12-5.383-12-12s5.383-12 12-12 12 5.383 12 12-5.383 12-12 12zm0-16c-2.207 0-4 1.795-4 4s1.793 4 4 4 4-1.795 4-4-1.793-4-4-4z"/></g><g><path d="m195.225 109.781 5.332-15.781 5.331 15.781 15.781 5.332-15.781 5.331-5.331 15.781-5.332-15.781-15.781-5.331z" fill="#ffce56"/><path d="m200.557 140.225c-1.715 0-3.242-1.094-3.789-2.719l-4.699-13.904-13.906-4.699c-1.625-.549-2.719-2.074-2.719-3.789s1.094-3.24 2.719-3.789l13.906-4.699 4.699-13.906c.547-1.625 2.074-2.719 3.789-2.719s3.242 1.094 3.789 2.719l4.699 13.906 13.906 4.699c1.625.549 2.719 2.074 2.719 3.789s-1.094 3.24-2.719 3.789l-13.906 4.699-4.699 13.904c-.547 1.625-2.075 2.719-3.789 2.719zm-8.618-25.112 4.566 1.543c1.18.398 2.109 1.326 2.508 2.508l1.543 4.566 1.543-4.566c.398-1.182 1.328-2.109 2.508-2.508l4.566-1.543-4.566-1.543c-1.18-.398-2.109-1.326-2.508-2.508l-1.543-4.566-1.543 4.566c-.398 1.182-1.328 2.109-2.508 2.508zm3.286-5.332h.039z" fill="#4c241d"/></g><g><path d="m71.225 161.781 5.332-15.781 5.331 15.781 15.781 5.332-15.781 5.331-5.331 15.781-5.332-15.781-15.781-5.331z" fill="#ffce56"/><path d="m76.557 192.225c-1.715 0-3.242-1.094-3.789-2.719l-4.699-13.904-13.906-4.699c-1.625-.549-2.719-2.074-2.719-3.789s1.094-3.24 2.719-3.789l13.906-4.699 4.699-13.906c.547-1.625 2.074-2.719 3.789-2.719s3.242 1.094 3.789 2.719l4.699 13.906 13.906 4.699c1.625.549 2.719 2.074 2.719 3.789s-1.094 3.24-2.719 3.789l-13.906 4.699-4.699 13.904c-.547 1.625-2.075 2.719-3.789 2.719zm-8.618-25.112 4.566 1.543c1.18.398 2.109 1.326 2.508 2.508l1.543 4.566 1.543-4.566c.398-1.182 1.328-2.109 2.508-2.508l4.566-1.543-4.566-1.543c-1.18-.398-2.109-1.326-2.508-2.508l-1.543-4.566-1.543 4.566c-.398 1.182-1.328 2.109-2.508 2.508zm3.286-5.332h.039z" fill="#4c241d"/></g><g><path d="m146.557 270c-5.523 0-10-4.477-10-10v-37.09l-11.797-55.111c-.247-1.071-.27-2.182-.068-3.262l3.865-50.537h28l-12 52 11.797 54.201c.068.586.135 1.166.203 1.752v38.047c0 5.523-4.478 10-10 10z" fill="#bf7e68"/><path d="m146.557 274c-7.719 0-14-6.281-14-14v-36.666l-11.707-54.697c-.344-1.486-.391-3.049-.129-4.602l3.848-50.34c.16-2.086 1.898-3.695 3.988-3.695h28c1.219 0 2.371.557 3.129 1.51.762.953 1.043 2.201.77 3.391l-11.801 51.125 11.609 53.324c.027.133.051.268.062.4l.203 1.752c.02.15.027.301.027.451v38.047c.001 7.719-6.281 14-13.999 14zm-14.293-156-3.582 46.842c-.012.146-.031.291-.059.436-.102.539-.09 1.086.035 1.625l11.809 55.17c.059.275.09.557.09.838v37.089c0 3.309 2.691 6 6 6s6-2.691 6-6l-.152-39.143-11.758-54.006c-.125-.578-.121-1.176.012-1.752l10.871-47.1h-19.266z" fill="#4c241d"/></g><g><circle cx="142.557" cy="60" fill="#9dc1e4" r="30"/><path d="m142.557 94c-18.746 0-34-15.252-34-34s15.254-34 34-34 34 15.252 34 34-15.254 34-34 34zm0-60c-14.336 0-26 11.664-26 26s11.664 26 26 26 26-11.664 26-26-11.664-26-26-26z" fill="#4c241d"/></g><path d="m124.557 64c-2.211 0-4-1.791-4-4 0-12.131 9.871-22 22-22 2.211 0 4 1.791 4 4s-1.789 4-4 4c-7.719 0-14 6.281-14 14 0 2.209-1.789 4-4 4z" fill="#fff"/><g><path d="m156.557 114h-28l-12-28h52z" fill="#6b4f5b"/><path d="m156.557 118h-28c-1.602 0-3.047-.953-3.676-2.424l-12-28c-.531-1.236-.402-2.656.336-3.777.742-1.123 1.996-1.799 3.34-1.799h52c1.344 0 2.598.676 3.34 1.799.738 1.121.867 2.541.336 3.777l-12 28c-.629 1.471-2.075 2.424-3.676 2.424zm-25.364-8h22.727l8.57-20h-39.867z" fill="#4c241d"/></g><g fill="#4c241d"><path d="m224.557 190c-2.211 0-4-1.791-4-4v-16c0-2.209 1.789-4 4-4s4 1.791 4 4v16c0 2.209-1.789 4-4 4z"/><path d="m232.557 182h-16c-2.211 0-4-1.791-4-4s1.789-4 4-4h16c2.211 0 4 1.791 4 4s-1.789 4-4 4z"/></g></g></svg>